<svg xmlns="http://www.w3.org/2000/svg" viewBox="0 0 64 64" role="img" aria-label="EMESSA">
  <defs>
    <linearGradient id="g" x1="14" y1="10" x2="54" y2="56" gradientUnits="userSpaceOnUse">
      <stop offset="0" stop-color="#39d98a"/>
      <stop offset="0.55" stop-color="#22b86d"/>
      <stop offset="1" stop-color="#0c8f4f"/>
    </linearGradient>
    <linearGradient id="h" x1="18" y1="18" x2="50" y2="50" gradientUnits="userSpaceOnUse">
      <stop offset="0" stop-color="#d9bf7a" stop-opacity="0.45"/>
      <stop offset="1" stop-color="#d9bf7a" stop-opacity="0"/>
    </linearGradient>
  </defs>
  <circle cx="32" cy="32" r="28" fill="url(#g)"/>
  <path
    d="M19 37c0-10.6 8.6-19.2 19.2-19.2H45c0 6.3-3.7 12.2-9.4 15.2l-6.6 3.4c-2.7 1.4-5.7 2.1-8.7 2.1H19v-1.5z"
    fill="#0b2f1d"
    fill-opacity="0.22"
  />
  <path
    d="M22 40c.8-9.9 9.2-17.7 19.4-17.7h.8c-.6 5-3.8 9.4-8.5 11.6l-5.9 2.8c-1.8.9-3.8 1.5-5.8 1.7z"
    fill="#ffffff"
    fill-opacity="0.92"
  />
  <path
    d="M29.3 22.5c-4.8 7.5-5.1 14.4-.8 21.1"
    fill="none"
    stroke="#ffffff"
    stroke-opacity="0.55"
    stroke-width="2.2"
    stroke-linecap="round"
  />
  <circle cx="32" cy="32" r="28" fill="url(#h)"/>
</svg>
