<svg width="1200" height="900" viewBox="0 0 1200 900" fill="none" xmlns="http://www.w3.org/2000/svg" role="img" aria-label="Build phase abstract scene">
  <defs>
    <linearGradient id="bg2" x1="0" y1="0" x2="1200" y2="900" gradientUnits="userSpaceOnUse">
      <stop stop-color="#07090C"/>
      <stop offset="1" stop-color="#0A1017"/>
    </linearGradient>
    <radialGradient id="accent2" cx="0" cy="0" r="1" gradientUnits="userSpaceOnUse" gradientTransform="translate(880 240) rotate(20) scale(740 560)">
      <stop stop-color="#6BD6C5" stop-opacity="0.16"/>
      <stop offset="1" stop-color="#6BD6C5" stop-opacity="0"/>
    </radialGradient>
    <filter id="grain2" x="-20%" y="-20%" width="140%" height="140%" color-interpolation-filters="sRGB">
      <feTurbulence type="fractalNoise" baseFrequency="0.85" numOctaves="2" stitchTiles="stitch" />
      <feColorMatrix type="matrix" values="0 0 0 0 0  0 0 0 0 0  0 0 0 0 0  0 0 0 0.10 0"/>
    </filter>
  </defs>

  <rect width="1200" height="900" fill="url(#bg2)"/>
  <rect width="1200" height="900" fill="url(#accent2)"/>

  <!-- horizon blocks -->
  <g opacity="0.9">
    <path d="M110 650H1090" stroke="#D7DDE6" stroke-opacity="0.10" stroke-width="2"/>
    <path d="M150 705H1050" stroke="#D7DDE6" stroke-opacity="0.08" stroke-width="2"/>
  </g>

  <!-- hardscape / structure -->
  <g opacity="0.95">
    <path d="M220 700L360 560L520 560L660 700" stroke="#D9BF7A" stroke-opacity="0.55" stroke-width="3" stroke-linejoin="round"/>
    <path d="M360 560L420 490L600 490L660 560" stroke="#D9BF7A" stroke-opacity="0.45" stroke-width="3" stroke-linejoin="round"/>
    <path d="M420 490L500 410L690 410" stroke="#D9BF7A" stroke-opacity="0.35" stroke-width="3" stroke-linecap="round"/>
    <path d="M760 720C820 650 900 610 1010 600" stroke="#6BD6C5" stroke-opacity="0.32" stroke-width="3" stroke-linecap="round"/>
  </g>

  <!-- scaffolding lines -->
  <g opacity="0.34">
    <path d="M180 300V760" stroke="#D7DDE6" stroke-opacity="0.34" stroke-width="1.6"/>
    <path d="M320 260V780" stroke="#D7DDE6" stroke-opacity="0.26" stroke-width="1.6"/>
    <path d="M460 240V800" stroke="#D7DDE6" stroke-opacity="0.20" stroke-width="1.6"/>
    <path d="M600 240V800" stroke="#D7DDE6" stroke-opacity="0.20" stroke-width="1.6"/>
    <path d="M740 260V780" stroke="#D7DDE6" stroke-opacity="0.24" stroke-width="1.6"/>
    <path d="M880 300V760" stroke="#D7DDE6" stroke-opacity="0.30" stroke-width="1.6"/>
    <path d="M140 340H1060" stroke="#D7DDE6" stroke-opacity="0.12" stroke-width="1.2"/>
    <path d="M140 430H1060" stroke="#D7DDE6" stroke-opacity="0.10" stroke-width="1.2"/>
    <path d="M140 520H1060" stroke="#D7DDE6" stroke-opacity="0.08" stroke-width="1.2"/>
  </g>

  <!-- in progress markers -->
  <g opacity="0.95">
    <circle cx="500" cy="410" r="5.5" fill="#6BD6C5" fill-opacity="0.70"/>
    <circle cx="690" cy="410" r="5.5" fill="#6BD6C5" fill-opacity="0.55"/>
    <circle cx="360" cy="560" r="5.5" fill="#6BD6C5" fill-opacity="0.45"/>
  </g>

  <rect width="1200" height="900" filter="url(#grain2)" opacity="0.55"/>
</svg>
